<svg xmlns="http://www.w3.org/2000/svg" width="896" height="896" fill="none"><rect width="896" height="896" class="fills" rx="240" ry="240" style="fill:#222;fill-opacity:1"/><path d="M128 512h256v256H256a128 128 0 0 1-128-128z" class="fills" style="fill:#fff;fill-opacity:1"/><path d="M512 128h256v256H640a128 128 0 0 1-128-128z" class="fills" style="fill:#fff;fill-opacity:1" transform="matrix(-1 0 0 -1 1280 512)"/><rect width="128" height="128" x="384" y="384" class="fills" rx="0" ry="0" style="fill:#fff;fill-opacity:1"/><path d="M256 128v384H128V256a128 128 0 0 1 128-128M640 384h128v256a128 128 0 0 1-128 128z" class="fills" style="fill:#fff;fill-opacity:1"/></svg>