<svg xmlns="http://www.w3.org/2000/svg" id="screenshot-93e657ed-7b9c-8078-8007-a6fd099f441b" viewBox="10240.834 2806.178 187.088 56.4" xmlns:xlink="http://www.w3.org/1999/xlink" fill="none" version="1.1"><g id="shape-93e657ed-7b9c-8078-8007-a6fd099f441b"><g class="fills" id="fills-93e657ed-7b9c-8078-8007-a6fd099f441b"><path d="M10261.4541015625,2806.784912109375L10240.833984375,2862.27294921875L10256.6015625,2862.27294921875L10259.3310546875,2854.389892578125L10271.4599609375,2854.389892578125L10271.4599609375,2862.27294921875L10286.923828125,2862.27294921875L10286.923828125,2806.784912109375L10261.4541015625,2806.784912109375ZM10271.1572265625,2838.320068359375L10264.7890625,2838.320068359375L10271.1572265625,2824.97802734375L10271.1572265625,2838.320068359375ZM10332.7099609375,2806.177978515625L10308.1494140625,2806.177978515625C10299.9609375,2806.177978515625,10297.2333984375,2816.791015625,10297.2333984375,2816.791015625L10291.4716796875,2849.842041015625C10291.4716796875,2849.842041015625,10289.3486328125,2862.27392578125,10299.9619140625,2862.27392578125L10323.0068359375,2862.27392578125L10325.4326171875,2845.90087890625L10313.0009765625,2845.90087890625C10313.0009765625,2845.90087890625,10307.54296875,2847.114013671875,10308.453125,2841.049072265625C10308.755859375,2840.138916015625,10310.87890625,2828.010009765625,10310.87890625,2828.010009765625C10310.87890625,2828.010009765625,10311.4853515625,2823.764892578125,10314.2138671875,2823.764892578125L10329.677734375,2823.764892578125L10332.7099609375,2806.177978515625ZM10339.98828125,2806.48193359375L10328.46484375,2862.27294921875L10343.626953125,2862.27294921875L10348.78125,2838.623046875L10349.994140625,2862.27294921875L10358.181640625,2862.27294921875L10367.27734375,2838.623046875L10362.728515625,2862.27294921875L10376.373046875,2862.27294921875L10387.59375,2806.177978515625L10368.1884765625,2806.177978515625L10358.787109375,2829.52587890625L10358.787109375,2806.48193359375L10339.98828125,2806.48193359375ZM10383.955078125,2862.27294921875L10394.56640625,2806.177978515625L10425.798828125,2806.177978515625L10423.373046875,2822.25L10407,2822.25L10406.08984375,2827.70703125L10421.857421875,2827.70703125L10419.431640625,2839.8359375L10403.361328125,2839.532958984375L10402.451171875,2844.989990234375L10418.521484375,2844.989990234375L10415.185546875,2862.27294921875L10383.955078125,2862.27294921875ZM10423.0703125,2861.364990234375C10420.947265625,2861.364990234375,10419.734375,2859.846923828125,10419.734375,2857.72607421875C10419.734375,2855.60302734375,10420.947265625,2854.0869140625,10423.0703125,2854.0869140625C10425.193359375,2854.0869140625,10426.708984375,2855.60302734375,10426.708984375,2857.72607421875C10426.708984375,2859.847900390625,10425.193359375,2861.364990234375,10423.0703125,2861.364990234375ZM10423.0703125,2862.578125C10425.798828125,2862.578125,10427.921875,2860.152099609375,10427.921875,2857.72607421875C10427.921875,2854.9970703125,10425.798828125,2852.8740234375,10423.0703125,2852.8740234375C10420.3408203125,2852.8740234375,10418.2177734375,2854.9970703125,10418.2177734375,2857.72607421875C10418.21875,2860.152099609375,10420.341796875,2862.578125,10423.0703125,2862.578125ZM10424.283203125,2858.029052734375C10425.193359375,2858.029052734375,10425.798828125,2857.72607421875,10425.798828125,2856.512939453125C10425.798828125,2855.300048828125,10424.888671875,2854.9970703125,10423.67578125,2854.9970703125L10421.25,2854.9970703125L10421.25,2860.15087890625L10422.16015625,2860.15087890625L10422.16015625,2858.028076171875L10423.0703125,2858.028076171875L10424.283203125,2860.15087890625L10425.49609375,2860.15087890625L10424.283203125,2858.029052734375ZM10422.16015625,2857.421875L10422.16015625,2855.906005859375L10423.373046875,2855.906005859375C10423.98046875,2855.906005859375,10424.5859375,2855.906005859375,10424.5859375,2856.512939453125C10424.5859375,2857.117919921875,10424.283203125,2857.4208984375,10423.67578125,2857.4208984375L10422.16015625,2857.4208984375L10422.16015625,2857.421875Z" fill-rule="evenodd" clip-rule="evenodd" style="fill: rgb(0, 0, 0); fill-opacity: 1;"/></g></g></svg>